<svg xmlns="http://www.w3.org/2000/svg" viewBox="0 0 500 515" role="img" aria-label="Mobile language breakdown for n335h-max"><rect width="500" height="515" rx="20" fill="#f6f8fa"/><rect x="6" y="6" width="488" height="503" rx="17" fill="#ffffff" stroke="#d0d7de" stroke-width="2"/><text x="25" y="49" fill="#1f2933" font-family="Arial, Segoe UI, sans-serif" font-size="26" font-weight="700">LANGUAGES IN PUBLIC REPOS</text><circle cx="35" cy="88" r="9" fill="#f3ce59"/><text x="58" y="97" fill="#1f2933" font-family="Arial, Segoe UI, sans-serif" font-size="26">JavaScript</text><text x="470" y="97" text-anchor="end" fill="#576574" font-family="Arial, Segoe UI, sans-serif" font-size="26">56%</text><rect x="25" y="111" width="450" height="9" rx="4.5" fill="#e8edf1"/><rect x="25" y="111" width="252.27" height="9" rx="4.5" fill="#f3ce59"/><circle cx="35" cy="150" r="9" fill="#438dd3"/><text x="58" y="159" fill="#1f2933" font-family="Arial, Segoe UI, sans-serif" font-size="26">TypeScript</text><text x="470" y="159" text-anchor="end" fill="#576574" font-family="Arial, Segoe UI, sans-serif" font-size="26">32%</text><rect x="25" y="173" width="450" height="9" rx="4.5" fill="#e8edf1"/><rect x="25" y="173" width="142.45" height="9" rx="4.5" fill="#438dd3"/><circle cx="35" cy="212" r="9" fill="#f06a42"/><text x="58" y="221" fill="#1f2933" font-family="Arial, Segoe UI, sans-serif" font-size="26">HTML</text><text x="470" y="221" text-anchor="end" fill="#576574" font-family="Arial, Segoe UI, sans-serif" font-size="26">7%</text><rect x="25" y="235" width="450" height="9" rx="4.5" fill="#e8edf1"/><rect x="25" y="235" width="31.25" height="9" rx="4.5" fill="#f06a42"/><circle cx="35" cy="274" r="9" fill="#8e62c8"/><text x="58" y="283" fill="#1f2933" font-family="Arial, Segoe UI, sans-serif" font-size="26">CSS</text><text x="470" y="283" text-anchor="end" fill="#576574" font-family="Arial, Segoe UI, sans-serif" font-size="26">2%</text><rect x="25" y="297" width="450" height="9" rx="4.5" fill="#e8edf1"/><rect x="25" y="297" width="9.58" height="9" rx="4.5" fill="#8e62c8"/><circle cx="35" cy="336" r="9" fill="#48a888"/><text x="58" y="345" fill="#1f2933" font-family="Arial, Segoe UI, sans-serif" font-size="26">Python</text><text x="470" y="345" text-anchor="end" fill="#576574" font-family="Arial, Segoe UI, sans-serif" font-size="26">2%</text><rect x="25" y="359" width="450" height="9" rx="4.5" fill="#e8edf1"/><rect x="25" y="359" width="8.75" height="9" rx="4.5" fill="#48a888"/><circle cx="35" cy="398" r="9" fill="#7d8996"/><text x="58" y="407" fill="#1f2933" font-family="Arial, Segoe UI, sans-serif" font-size="26">Other</text><text x="470" y="407" text-anchor="end" fill="#576574" font-family="Arial, Segoe UI, sans-serif" font-size="26">1%</text><rect x="25" y="421" width="450" height="9" rx="4.5" fill="#e8edf1"/><rect x="25" y="421" width="5.69" height="9" rx="4.5" fill="#7d8996"/><text x="25" y="482" fill="#576574" font-family="Arial, Segoe UI, sans-serif" font-size="19">Code size in non-fork repos  ·  @n335h-max</text></svg>