<svg xmlns="http://www.w3.org/2000/svg" viewBox="0 0 1000 475" role="img" aria-label="GitHub statistics for n335h-max"><rect width="1000" height="475" rx="22" fill="#0d1117"/><text x="30" y="50" fill="#9da7b3" font-family="Arial, Segoe UI, sans-serif" font-size="27" font-weight="700" letter-spacing="2">PROFILE AT A GLANCE</text><rect x="20" y="75" width="470" height="180" rx="20" fill="#161b22" stroke="#30363d" stroke-width="2"/><rect x="44" y="101" width="6" height="54" rx="3" fill="#57d4c8"/><text x="69" y="167" fill="#f0f6fc" font-family="Arial, Segoe UI, sans-serif" font-size="70" font-weight="700">18</text><text x="48" y="221" fill="#9da7b3" font-family="Arial, Segoe UI, sans-serif" font-size="26" font-weight="700" letter-spacing="1">PUBLIC REPOSITORIES</text><text x="445" y="122" fill="#57d4c8" font-family="Arial, Segoe UI, sans-serif" font-size="23" text-anchor="end">01</text><rect x="510" y="75" width="470" height="180" rx="20" fill="#161b22" stroke="#30363d" stroke-width="2"/><rect x="534" y="101" width="6" height="54" rx="3" fill="#57d4c8"/><text x="559" y="167" fill="#f0f6fc" font-family="Arial, Segoe UI, sans-serif" font-size="70" font-weight="700">0</text><text x="538" y="221" fill="#9da7b3" font-family="Arial, Segoe UI, sans-serif" font-size="26" font-weight="700" letter-spacing="1">STARS RECEIVED</text><text x="935" y="122" fill="#57d4c8" font-family="Arial, Segoe UI, sans-serif" font-size="23" text-anchor="end">02</text><rect x="20" y="270" width="470" height="180" rx="20" fill="#161b22" stroke="#30363d" stroke-width="2"/><rect x="44" y="296" width="6" height="54" rx="3" fill="#57d4c8"/><text x="69" y="362" fill="#f0f6fc" font-family="Arial, Segoe UI, sans-serif" font-size="70" font-weight="700">1</text><text x="48" y="416" fill="#9da7b3" font-family="Arial, Segoe UI, sans-serif" font-size="26" font-weight="700" letter-spacing="1">FOLLOWERS</text><text x="445" y="317" fill="#57d4c8" font-family="Arial, Segoe UI, sans-serif" font-size="23" text-anchor="end">03</text><rect x="510" y="270" width="470" height="180" rx="20" fill="#161b22" stroke="#30363d" stroke-width="2"/><rect x="534" y="296" width="6" height="54" rx="3" fill="#57d4c8"/><text x="559" y="362" fill="#f0f6fc" font-family="Arial, Segoe UI, sans-serif" font-size="70" font-weight="700">APR 2025</text><text x="538" y="416" fill="#9da7b3" font-family="Arial, Segoe UI, sans-serif" font-size="26" font-weight="700" letter-spacing="1">ON GITHUB SINCE</text><text x="935" y="317" fill="#57d4c8" font-family="Arial, Segoe UI, sans-serif" font-size="23" text-anchor="end">04</text></svg>